<svg xmlns="http://www.w3.org/2000/svg" viewBox="0 0 1024 1024" width="100%" height="100%">
  <path d="M 285.71 226.54 L 285.71 797.46 L 345.54 797.46 L 345.54 541.41 L 532.39 541.41 L 532.39 484.11 L 345.54 484.11 L 345.54 283.84 L 547.33 283.84 L 547.33 226.54 Z" fill="#0F2B46"/>
  <path d="M 407.41 226.54 L 407.41 797.46 L 467.24 797.46 L 467.24 541.41 L 654.09 541.41 L 654.09 484.11 L 467.24 484.11 L 467.24 283.84 L 669.03 283.84 L 669.03 226.54 Z" fill="#D4A017"/>
  <path d="M 529.11 226.54 L 529.11 797.46 L 588.94 797.46 L 588.94 541.41 L 775.79 541.41 L 775.79 484.11 L 588.94 484.11 L 588.94 283.84 L 790.73 283.84 L 790.73 226.54 Z" fill="rgba(15,43,70,0.55)"/>
  <path d="M 650.81 226.54 L 650.81 797.46 L 710.64 797.46 L 710.64 283.84 L 790.73 283.84 L 790.73 226.54 Z" fill="rgba(15,43,70,0.3)"/>
</svg>
